<mxfile host="app.diagrams.net" modified="2021-08-04T11:26:05.309Z" agent="5.0 (Windows)" etag="HW16aGG7EQH9ahdYM3fK" version="14.9.3" type="github">
  <diagram id="JpgFDhPypRxZ6japV6Xt" name="Page-1">
    <mxGraphModel dx="1038" dy="508" grid="1" gridSize="10" guides="1" tooltips="1" connect="1" arrows="1" fold="1" page="1" pageScale="1" pageWidth="1169" pageHeight="827" math="0" shadow="0">
      <root>
        <mxCell id="0" />
        <mxCell id="1" parent="0" />
        <mxCell id="ixj6lN1su4Th0R0Dn0Wk-1" value="Recruitment" style="swimlane;" vertex="1" parent="1">
          <mxGeometry x="10" y="20" width="1150" height="790" as="geometry" />
        </mxCell>
        <mxCell id="ixj6lN1su4Th0R0Dn0Wk-2" value="Start" style="rounded=1;whiteSpace=wrap;html=1;" vertex="1" parent="ixj6lN1su4Th0R0Dn0Wk-1">
          <mxGeometry x="170" y="60" width="120" height="60" as="geometry" />
        </mxCell>
        <mxCell id="ixj6lN1su4Th0R0Dn0Wk-4" value="&lt;span lang=&quot;EN-GB&quot;&gt;HRM checks with departments for vacancies and prioritizes based on funds availability&lt;br&gt;&lt;/span&gt;" style="rounded=0;whiteSpace=wrap;html=1;" vertex="1" parent="ixj6lN1su4Th0R0Dn0Wk-1">
          <mxGeometry x="150" y="170" width="160" height="60" as="geometry" />
        </mxCell>
        <mxCell id="ixj6lN1su4Th0R0Dn0Wk-5" value="" style="edgeStyle=orthogonalEdgeStyle;rounded=0;orthogonalLoop=1;jettySize=auto;html=1;" edge="1" parent="ixj6lN1su4Th0R0Dn0Wk-1" source="ixj6lN1su4Th0R0Dn0Wk-2" target="ixj6lN1su4Th0R0Dn0Wk-4">
          <mxGeometry relative="1" as="geometry">
            <mxPoint x="230" y="200" as="targetPoint" />
          </mxGeometry>
        </mxCell>
        <mxCell id="ixj6lN1su4Th0R0Dn0Wk-6" value="" style="edgeStyle=orthogonalEdgeStyle;rounded=0;orthogonalLoop=1;jettySize=auto;html=1;" edge="1" parent="ixj6lN1su4Th0R0Dn0Wk-1" source="ixj6lN1su4Th0R0Dn0Wk-7" target="ixj6lN1su4Th0R0Dn0Wk-4">
          <mxGeometry relative="1" as="geometry" />
        </mxCell>
        <mxCell id="ixj6lN1su4Th0R0Dn0Wk-7" value="&lt;div&gt;- Funds availability&lt;/div&gt;&lt;div&gt;- Approved establishment&lt;br&gt;&lt;/div&gt;" style="shape=parallelogram;perimeter=parallelogramPerimeter;whiteSpace=wrap;html=1;fixedSize=1;" vertex="1" parent="ixj6lN1su4Th0R0Dn0Wk-1">
          <mxGeometry x="350" y="110" width="160" height="60" as="geometry" />
        </mxCell>
        <mxCell id="ixj6lN1su4Th0R0Dn0Wk-11" value="" style="edgeStyle=orthogonalEdgeStyle;rounded=0;orthogonalLoop=1;jettySize=auto;html=1;exitX=0.5;exitY=1;exitDx=0;exitDy=0;" edge="1" parent="ixj6lN1su4Th0R0Dn0Wk-1" source="ixj6lN1su4Th0R0Dn0Wk-60" target="ixj6lN1su4Th0R0Dn0Wk-18">
          <mxGeometry relative="1" as="geometry">
            <mxPoint x="230" y="500" as="sourcePoint" />
          </mxGeometry>
        </mxCell>
        <mxCell id="ixj6lN1su4Th0R0Dn0Wk-16" value="" style="edgeStyle=orthogonalEdgeStyle;rounded=0;orthogonalLoop=1;jettySize=auto;html=1;" edge="1" parent="ixj6lN1su4Th0R0Dn0Wk-1" source="ixj6lN1su4Th0R0Dn0Wk-18" target="ixj6lN1su4Th0R0Dn0Wk-20">
          <mxGeometry relative="1" as="geometry" />
        </mxCell>
        <mxCell id="ixj6lN1su4Th0R0Dn0Wk-17" value="" style="edgeStyle=orthogonalEdgeStyle;rounded=0;orthogonalLoop=1;jettySize=auto;html=1;" edge="1" parent="ixj6lN1su4Th0R0Dn0Wk-1" source="ixj6lN1su4Th0R0Dn0Wk-18" target="ixj6lN1su4Th0R0Dn0Wk-22">
          <mxGeometry relative="1" as="geometry" />
        </mxCell>
        <mxCell id="ixj6lN1su4Th0R0Dn0Wk-18" value="&lt;div&gt;CEO &lt;br&gt;&lt;/div&gt;&lt;div&gt;Approved?&lt;/div&gt;" style="rhombus;whiteSpace=wrap;html=1;rounded=0;" vertex="1" parent="ixj6lN1su4Th0R0Dn0Wk-1">
          <mxGeometry x="180" y="460" width="100" height="80" as="geometry" />
        </mxCell>
        <mxCell id="ixj6lN1su4Th0R0Dn0Wk-19" value="" style="edgeStyle=orthogonalEdgeStyle;rounded=0;orthogonalLoop=1;jettySize=auto;html=1;entryX=0.5;entryY=1;entryDx=0;entryDy=0;" edge="1" parent="ixj6lN1su4Th0R0Dn0Wk-1" source="ixj6lN1su4Th0R0Dn0Wk-20" target="ixj6lN1su4Th0R0Dn0Wk-26">
          <mxGeometry relative="1" as="geometry">
            <mxPoint x="380" y="730" as="targetPoint" />
          </mxGeometry>
        </mxCell>
        <mxCell id="ixj6lN1su4Th0R0Dn0Wk-20" value="HR prepares advert" style="whiteSpace=wrap;html=1;rounded=0;" vertex="1" parent="ixj6lN1su4Th0R0Dn0Wk-1">
          <mxGeometry x="170" y="640" width="120" height="60" as="geometry" />
        </mxCell>
        <mxCell id="ixj6lN1su4Th0R0Dn0Wk-62" value="" style="edgeStyle=orthogonalEdgeStyle;rounded=0;orthogonalLoop=1;jettySize=auto;html=1;entryX=0;entryY=0.5;entryDx=0;entryDy=0;exitX=0.5;exitY=0;exitDx=0;exitDy=0;" edge="1" parent="ixj6lN1su4Th0R0Dn0Wk-1" source="ixj6lN1su4Th0R0Dn0Wk-22" target="ixj6lN1su4Th0R0Dn0Wk-60">
          <mxGeometry relative="1" as="geometry">
            <mxPoint x="65" y="470" as="targetPoint" />
          </mxGeometry>
        </mxCell>
        <mxCell id="ixj6lN1su4Th0R0Dn0Wk-22" value="Comments" style="shape=document;whiteSpace=wrap;html=1;boundedLbl=1;rounded=0;" vertex="1" parent="ixj6lN1su4Th0R0Dn0Wk-1">
          <mxGeometry x="20" y="460" width="90" height="80" as="geometry" />
        </mxCell>
        <mxCell id="ixj6lN1su4Th0R0Dn0Wk-25" value="" style="edgeStyle=orthogonalEdgeStyle;rounded=0;orthogonalLoop=1;jettySize=auto;html=1;" edge="1" parent="ixj6lN1su4Th0R0Dn0Wk-1" source="ixj6lN1su4Th0R0Dn0Wk-26" target="ixj6lN1su4Th0R0Dn0Wk-28">
          <mxGeometry relative="1" as="geometry" />
        </mxCell>
        <mxCell id="ixj6lN1su4Th0R0Dn0Wk-26" value="HR advertises internship(s) on selected channels. Attachment applications ar received throughout" style="whiteSpace=wrap;html=1;rounded=0;" vertex="1" parent="ixj6lN1su4Th0R0Dn0Wk-1">
          <mxGeometry x="360" y="564" width="180" height="76" as="geometry" />
        </mxCell>
        <mxCell id="ixj6lN1su4Th0R0Dn0Wk-27" value="" style="edgeStyle=orthogonalEdgeStyle;rounded=0;orthogonalLoop=1;jettySize=auto;html=1;" edge="1" parent="ixj6lN1su4Th0R0Dn0Wk-1" source="ixj6lN1su4Th0R0Dn0Wk-28" target="ixj6lN1su4Th0R0Dn0Wk-32">
          <mxGeometry relative="1" as="geometry" />
        </mxCell>
        <mxCell id="ixj6lN1su4Th0R0Dn0Wk-28" value="Applicants submit applications till deadline" style="whiteSpace=wrap;html=1;rounded=0;" vertex="1" parent="ixj6lN1su4Th0R0Dn0Wk-1">
          <mxGeometry x="390" y="450" width="120" height="60" as="geometry" />
        </mxCell>
        <mxCell id="ixj6lN1su4Th0R0Dn0Wk-29" value="yes" style="text;html=1;strokeColor=none;fillColor=none;align=center;verticalAlign=middle;whiteSpace=wrap;rounded=0;" vertex="1" parent="ixj6lN1su4Th0R0Dn0Wk-1">
          <mxGeometry x="224" y="570" width="40" height="20" as="geometry" />
        </mxCell>
        <mxCell id="ixj6lN1su4Th0R0Dn0Wk-31" value="" style="edgeStyle=orthogonalEdgeStyle;rounded=0;orthogonalLoop=1;jettySize=auto;html=1;" edge="1" parent="ixj6lN1su4Th0R0Dn0Wk-1" source="ixj6lN1su4Th0R0Dn0Wk-32" target="ixj6lN1su4Th0R0Dn0Wk-34">
          <mxGeometry relative="1" as="geometry" />
        </mxCell>
        <mxCell id="ixj6lN1su4Th0R0Dn0Wk-32" value="&lt;span lang=&quot;EN-GB&quot;&gt;DCS/ CEO appoints shortlisting committee and interview panel&lt;/span&gt;" style="whiteSpace=wrap;html=1;rounded=0;" vertex="1" parent="ixj6lN1su4Th0R0Dn0Wk-1">
          <mxGeometry x="380" y="324" width="140" height="60" as="geometry" />
        </mxCell>
        <mxCell id="ixj6lN1su4Th0R0Dn0Wk-33" value="" style="edgeStyle=orthogonalEdgeStyle;rounded=0;orthogonalLoop=1;jettySize=auto;html=1;entryX=0;entryY=0.5;entryDx=0;entryDy=0;" edge="1" parent="ixj6lN1su4Th0R0Dn0Wk-1" source="ixj6lN1su4Th0R0Dn0Wk-34" target="ixj6lN1su4Th0R0Dn0Wk-36">
          <mxGeometry relative="1" as="geometry" />
        </mxCell>
        <mxCell id="ixj6lN1su4Th0R0Dn0Wk-34" value="Shortlisting panels shortlists in the system and forwards compile reports to HR" style="whiteSpace=wrap;html=1;rounded=0;" vertex="1" parent="ixj6lN1su4Th0R0Dn0Wk-1">
          <mxGeometry x="380" y="200" width="140" height="70" as="geometry" />
        </mxCell>
        <mxCell id="ixj6lN1su4Th0R0Dn0Wk-35" value="" style="edgeStyle=orthogonalEdgeStyle;rounded=0;orthogonalLoop=1;jettySize=auto;html=1;" edge="1" parent="ixj6lN1su4Th0R0Dn0Wk-1" source="ixj6lN1su4Th0R0Dn0Wk-36" target="ixj6lN1su4Th0R0Dn0Wk-38">
          <mxGeometry relative="1" as="geometry" />
        </mxCell>
        <mxCell id="ixj6lN1su4Th0R0Dn0Wk-36" value="For internship HR Invites shortlisted candidates to an interview while successful attachment applicants are offered an attachment letter" style="whiteSpace=wrap;html=1;rounded=0;" vertex="1" parent="ixj6lN1su4Th0R0Dn0Wk-1">
          <mxGeometry x="560" y="120" width="170" height="90" as="geometry" />
        </mxCell>
        <mxCell id="ixj6lN1su4Th0R0Dn0Wk-37" value="" style="edgeStyle=orthogonalEdgeStyle;rounded=0;orthogonalLoop=1;jettySize=auto;html=1;" edge="1" parent="ixj6lN1su4Th0R0Dn0Wk-1" source="ixj6lN1su4Th0R0Dn0Wk-38" target="ixj6lN1su4Th0R0Dn0Wk-40">
          <mxGeometry relative="1" as="geometry" />
        </mxCell>
        <mxCell id="ixj6lN1su4Th0R0Dn0Wk-38" value="&lt;span lang=&quot;EN-GB&quot;&gt;Interview Panelists Conduct Interviews and update the score sheets in the system and compile interview report&lt;br&gt;&lt;/span&gt;" style="whiteSpace=wrap;html=1;rounded=0;" vertex="1" parent="ixj6lN1su4Th0R0Dn0Wk-1">
          <mxGeometry x="560" y="250" width="170" height="80" as="geometry" />
        </mxCell>
        <mxCell id="ixj6lN1su4Th0R0Dn0Wk-39" value="" style="edgeStyle=orthogonalEdgeStyle;rounded=0;orthogonalLoop=1;jettySize=auto;html=1;" edge="1" parent="ixj6lN1su4Th0R0Dn0Wk-1" source="ixj6lN1su4Th0R0Dn0Wk-40" target="ixj6lN1su4Th0R0Dn0Wk-42">
          <mxGeometry relative="1" as="geometry" />
        </mxCell>
        <mxCell id="ixj6lN1su4Th0R0Dn0Wk-40" value="&lt;span lang=&quot;EN-GB&quot;&gt;HR reviews report from interviewing panel&lt;/span&gt;" style="whiteSpace=wrap;html=1;rounded=0;" vertex="1" parent="ixj6lN1su4Th0R0Dn0Wk-1">
          <mxGeometry x="580" y="404" width="130" height="60" as="geometry" />
        </mxCell>
        <mxCell id="ixj6lN1su4Th0R0Dn0Wk-41" value="" style="edgeStyle=orthogonalEdgeStyle;rounded=0;orthogonalLoop=1;jettySize=auto;html=1;" edge="1" parent="ixj6lN1su4Th0R0Dn0Wk-1" source="ixj6lN1su4Th0R0Dn0Wk-42" target="ixj6lN1su4Th0R0Dn0Wk-44">
          <mxGeometry relative="1" as="geometry" />
        </mxCell>
        <mxCell id="ixj6lN1su4Th0R0Dn0Wk-42" value="&lt;span lang=&quot;EN-GB&quot;&gt;HR conducts reference checks of the successful candidate(s)&lt;br&gt;&lt;/span&gt;" style="whiteSpace=wrap;html=1;rounded=0;" vertex="1" parent="ixj6lN1su4Th0R0Dn0Wk-1">
          <mxGeometry x="580" y="544" width="130" height="60" as="geometry" />
        </mxCell>
        <mxCell id="ixj6lN1su4Th0R0Dn0Wk-43" value="" style="edgeStyle=orthogonalEdgeStyle;rounded=0;orthogonalLoop=1;jettySize=auto;html=1;entryX=0.5;entryY=1;entryDx=0;entryDy=0;exitX=0.5;exitY=1;exitDx=0;exitDy=0;" edge="1" parent="ixj6lN1su4Th0R0Dn0Wk-1" source="ixj6lN1su4Th0R0Dn0Wk-44" target="ixj6lN1su4Th0R0Dn0Wk-47">
          <mxGeometry relative="1" as="geometry">
            <Array as="points">
              <mxPoint x="645" y="780" />
              <mxPoint x="875" y="780" />
            </Array>
          </mxGeometry>
        </mxCell>
        <mxCell id="ixj6lN1su4Th0R0Dn0Wk-44" value="Share update recruitment report and recommendation to the CEO" style="whiteSpace=wrap;html=1;rounded=0;" vertex="1" parent="ixj6lN1su4Th0R0Dn0Wk-1">
          <mxGeometry x="580" y="684" width="130" height="60" as="geometry" />
        </mxCell>
        <mxCell id="ixj6lN1su4Th0R0Dn0Wk-45" value="" style="edgeStyle=orthogonalEdgeStyle;rounded=0;orthogonalLoop=1;jettySize=auto;html=1;" edge="1" parent="ixj6lN1su4Th0R0Dn0Wk-1" source="ixj6lN1su4Th0R0Dn0Wk-47" target="ixj6lN1su4Th0R0Dn0Wk-49">
          <mxGeometry relative="1" as="geometry" />
        </mxCell>
        <mxCell id="ixj6lN1su4Th0R0Dn0Wk-46" value="" style="edgeStyle=orthogonalEdgeStyle;rounded=0;orthogonalLoop=1;jettySize=auto;html=1;entryX=1;entryY=0.5;entryDx=0;entryDy=0;exitX=0;exitY=0.5;exitDx=0;exitDy=0;" edge="1" parent="ixj6lN1su4Th0R0Dn0Wk-1" source="ixj6lN1su4Th0R0Dn0Wk-47" target="ixj6lN1su4Th0R0Dn0Wk-42">
          <mxGeometry relative="1" as="geometry">
            <mxPoint x="1005" y="714" as="targetPoint" />
            <Array as="points">
              <mxPoint x="765" y="709" />
              <mxPoint x="765" y="574" />
            </Array>
          </mxGeometry>
        </mxCell>
        <mxCell id="ixj6lN1su4Th0R0Dn0Wk-47" value="&lt;div&gt;Report &lt;br&gt;&lt;/div&gt;&lt;div&gt;approved by &lt;br&gt;&lt;/div&gt;&lt;div&gt;CEO?&lt;/div&gt;" style="rhombus;whiteSpace=wrap;html=1;rounded=0;" vertex="1" parent="ixj6lN1su4Th0R0Dn0Wk-1">
          <mxGeometry x="820" y="654" width="110" height="110" as="geometry" />
        </mxCell>
        <mxCell id="ixj6lN1su4Th0R0Dn0Wk-48" value="" style="edgeStyle=orthogonalEdgeStyle;rounded=0;orthogonalLoop=1;jettySize=auto;html=1;" edge="1" parent="ixj6lN1su4Th0R0Dn0Wk-1" source="ixj6lN1su4Th0R0Dn0Wk-49" target="ixj6lN1su4Th0R0Dn0Wk-52">
          <mxGeometry relative="1" as="geometry" />
        </mxCell>
        <mxCell id="ixj6lN1su4Th0R0Dn0Wk-49" value="&lt;span lang=&quot;EN-GB&quot;&gt;Communication to the Successful Candidate through email/ sms/ call&lt;/span&gt;" style="whiteSpace=wrap;html=1;rounded=0;" vertex="1" parent="ixj6lN1su4Th0R0Dn0Wk-1">
          <mxGeometry x="800" y="530" width="150" height="70" as="geometry" />
        </mxCell>
        <mxCell id="ixj6lN1su4Th0R0Dn0Wk-50" value="" style="edgeStyle=orthogonalEdgeStyle;rounded=0;orthogonalLoop=1;jettySize=auto;html=1;" edge="1" parent="ixj6lN1su4Th0R0Dn0Wk-1" source="ixj6lN1su4Th0R0Dn0Wk-52" target="ixj6lN1su4Th0R0Dn0Wk-55">
          <mxGeometry relative="1" as="geometry" />
        </mxCell>
        <mxCell id="ixj6lN1su4Th0R0Dn0Wk-51" value="" style="edgeStyle=orthogonalEdgeStyle;rounded=0;orthogonalLoop=1;jettySize=auto;html=1;" edge="1" parent="ixj6lN1su4Th0R0Dn0Wk-1" source="ixj6lN1su4Th0R0Dn0Wk-52" target="ixj6lN1su4Th0R0Dn0Wk-59">
          <mxGeometry relative="1" as="geometry" />
        </mxCell>
        <mxCell id="ixj6lN1su4Th0R0Dn0Wk-52" value="&lt;div&gt;Candidate&lt;/div&gt;&lt;div&gt;Accepts offer?&lt;/div&gt;" style="rhombus;whiteSpace=wrap;html=1;rounded=0;" vertex="1" parent="ixj6lN1su4Th0R0Dn0Wk-1">
          <mxGeometry x="820" y="366" width="110" height="100" as="geometry" />
        </mxCell>
        <mxCell id="ixj6lN1su4Th0R0Dn0Wk-53" value="no" style="text;html=1;strokeColor=none;fillColor=none;align=center;verticalAlign=middle;whiteSpace=wrap;rounded=0;" vertex="1" parent="ixj6lN1su4Th0R0Dn0Wk-1">
          <mxGeometry x="756" y="650" width="40" height="20" as="geometry" />
        </mxCell>
        <mxCell id="ixj6lN1su4Th0R0Dn0Wk-54" value="" style="edgeStyle=orthogonalEdgeStyle;rounded=0;orthogonalLoop=1;jettySize=auto;html=1;entryX=0.5;entryY=1;entryDx=0;entryDy=0;" edge="1" parent="ixj6lN1su4Th0R0Dn0Wk-1" source="ixj6lN1su4Th0R0Dn0Wk-55" target="ixj6lN1su4Th0R0Dn0Wk-56">
          <mxGeometry relative="1" as="geometry">
            <mxPoint x="875" y="126" as="targetPoint" />
          </mxGeometry>
        </mxCell>
        <mxCell id="ixj6lN1su4Th0R0Dn0Wk-55" value="Notify unsuccessful candidates" style="whiteSpace=wrap;html=1;rounded=0;" vertex="1" parent="ixj6lN1su4Th0R0Dn0Wk-1">
          <mxGeometry x="815" y="240" width="120" height="60" as="geometry" />
        </mxCell>
        <mxCell id="ixj6lN1su4Th0R0Dn0Wk-56" value="End" style="rounded=1;whiteSpace=wrap;html=1;" vertex="1" parent="ixj6lN1su4Th0R0Dn0Wk-1">
          <mxGeometry x="815" y="100" width="120" height="60" as="geometry" />
        </mxCell>
        <mxCell id="ixj6lN1su4Th0R0Dn0Wk-57" value="yes" style="text;html=1;strokeColor=none;fillColor=none;align=center;verticalAlign=middle;whiteSpace=wrap;rounded=0;" vertex="1" parent="ixj6lN1su4Th0R0Dn0Wk-1">
          <mxGeometry x="869" y="324" width="40" height="20" as="geometry" />
        </mxCell>
        <mxCell id="ixj6lN1su4Th0R0Dn0Wk-58" value="" style="edgeStyle=orthogonalEdgeStyle;rounded=0;orthogonalLoop=1;jettySize=auto;html=1;entryX=1;entryY=0.5;entryDx=0;entryDy=0;exitX=0.5;exitY=1;exitDx=0;exitDy=0;" edge="1" parent="ixj6lN1su4Th0R0Dn0Wk-1" source="ixj6lN1su4Th0R0Dn0Wk-59" target="ixj6lN1su4Th0R0Dn0Wk-49">
          <mxGeometry relative="1" as="geometry">
            <mxPoint x="1065" y="526" as="targetPoint" />
          </mxGeometry>
        </mxCell>
        <mxCell id="ixj6lN1su4Th0R0Dn0Wk-59" value="Identify next best candidate" style="rounded=0;whiteSpace=wrap;html=1;" vertex="1" parent="ixj6lN1su4Th0R0Dn0Wk-1">
          <mxGeometry x="1005" y="386" width="120" height="60" as="geometry" />
        </mxCell>
        <mxCell id="ixj6lN1su4Th0R0Dn0Wk-60" value="&lt;span lang=&quot;EN-GB&quot;&gt;HRM prepares indents in concurrence with the DCS and forwards to the CEO for approval.&lt;/span&gt;" style="rounded=0;whiteSpace=wrap;html=1;" vertex="1" parent="ixj6lN1su4Th0R0Dn0Wk-1">
          <mxGeometry x="140" y="311" width="180" height="86" as="geometry" />
        </mxCell>
        <mxCell id="ixj6lN1su4Th0R0Dn0Wk-3" value="" style="edgeStyle=orthogonalEdgeStyle;rounded=0;orthogonalLoop=1;jettySize=auto;html=1;" edge="1" parent="ixj6lN1su4Th0R0Dn0Wk-1" source="ixj6lN1su4Th0R0Dn0Wk-4" target="ixj6lN1su4Th0R0Dn0Wk-60">
          <mxGeometry relative="1" as="geometry">
            <mxPoint x="230" y="290" as="targetPoint" />
          </mxGeometry>
        </mxCell>
        <mxCell id="ixj6lN1su4Th0R0Dn0Wk-63" value="no" style="text;html=1;strokeColor=none;fillColor=none;align=center;verticalAlign=middle;whiteSpace=wrap;rounded=0;" vertex="1" parent="1">
          <mxGeometry x="150" y="500" width="40" height="20" as="geometry" />
        </mxCell>
      </root>
    </mxGraphModel>
  </diagram>
</mxfile>
